Coordinates
version=1
nRows=17
nColumns=34
inDegrees=yes

Units are S.I. units (second, meters, Newtons, ...)
If the header above contains a line with 'inDegrees', this indicates whether rotational values are in degrees (yes) or radians (no).

endheader
time	pelvis_tilt	pelvis_list	pelvis_rotation	pelvis_tx	pelvis_ty	pelvis_tz	hip_flexion_r	hip_adduction_r	hip_rotation_r	knee_angle_r	ankle_angle_r	subtalar_angle_r	mtp_angle_r	hip_flexion_l	hip_adduction_l	hip_rotation_l	knee_angle_l	ankle_angle_l	subtalar_angle_l	mtp_angle_l	lumbar_extension	lumbar_bending	lumbar_rotation	arm_flex_r	arm_add_r	arm_rot_r	elbow_flex_r	pro_sup_r	arm_flex_l	arm_add_l	arm_rot_l	elbow_flex_l	pro_sup_l
      3.25000000	     -6.63385243	      2.92804369	      1.07108923	      1.90491597	      0.90263906	     -0.17887288	      8.39326291	     -9.17233748	    -16.52299938	     21.79461090	     12.21596592	     -1.73084895	      0.00000000	      8.39332559	     -5.15749895	     -9.25715638	     21.82859462	      6.69730289	      4.53836747	      0.00000000	     -4.88516642	     -4.33665473	      6.46893198	     69.13506629	      2.36368756	      6.75612929	    116.67316052	    102.54220978	     93.00477060	     -6.11305067	     30.65620336	    102.45951209	     92.15424210
      3.26666670	     -6.96500027	      2.93500929	      1.50965357	      1.91057757	      0.91217023	     -0.17791294	      6.74997658	     -8.55739863	    -17.22479721	     18.11182599	      8.55960421	     -2.19726507	      0.00000000	      6.92355332	     -4.93623757	     -9.25733499	     18.03665070	      3.00921074	      5.20125790	      0.00000000	     -3.91119231	     -4.90662932	      7.27690926	     76.82540077	      1.26783789	      4.69019759	    109.57060613	    101.68049898	     97.50575359	     -5.38592416	     30.29176433	     99.98980034	     92.19817672
      3.28333330	     -7.19729869	      2.94928494	      1.98343997	      1.91557384	      0.92230715	     -0.17724301	      5.11242057	     -7.97461391	    -17.80864403	     14.56353476	      4.59252229	     -2.49772283	      0.00000000	      5.62855741	     -4.68737456	     -9.01623928	     14.62262716	     -0.81049303	      5.60991105	      0.00000000	     -3.22843821	     -5.58596469	      8.07926076	     85.31061900	     -0.60453538	      3.07102258	    100.35048663	    100.69153253	    102.74716390	     -4.01743551	     30.07956410	     96.98456378	     92.19663063
      3.30000000	     -7.52352012	      2.94739290	      2.43305164	      1.92030279	      0.93106188	     -0.17710513	      3.74781492	     -7.43313663	    -18.29934827	     11.29070863	      0.64009155	     -2.51841934	      0.00000000	      4.67500885	     -4.41029176	     -8.60282465	     11.55625545	     -4.62322810	      5.80720146	      0.00000000	     -2.49962204	     -6.34747801	      9.05784736	     94.02965452	     -3.22482024	      2.24893805	     88.91176865	    100.10034854	    107.62310228	     -2.04995505	     29.98839820	     93.28288560	     92.14933219
      3.31666670	     -7.72963559	      2.93240404	      2.87215313	      1.92486012	      0.93854152	     -0.17700354	      2.44579517	     -6.94344925	    -18.69304286	      8.38054813	     -3.43884622	     -2.48830598	      0.00000000	      3.83414265	     -4.12150036	     -8.20848821	      8.93666668	     -8.31522520	      5.63359001	      0.00000000	     -2.12393697	     -7.20938635	      9.69914677	    103.16093979	     -6.22576597	      3.24559728	     75.53811795	     99.63333751	    112.02973530	     -0.69230497	     29.98519145	     89.71648134	     92.03015191
      3.33333330	     -7.97036412	      2.91935238	      3.33669235	      1.92945317	      0.94456383	     -0.17685591	      1.37094680	     -6.57363291	    -18.95765142	      5.88908000	     -7.23660971	     -2.28168826	      0.00000000	      3.22093389	     -3.76815548	     -7.74387140	      6.73575983	    -11.55650753	      5.17959054	      0.00000000	     -1.76884702	     -7.94244308	     10.34570746	    112.82595610	     -9.14137952	      6.90824085	     60.26043480	     99.17949143	    115.27693806	     -0.18091091	     29.88269234	     86.97571078	     91.68314913
      3.35000000	     -8.28230984	      2.86447114	      3.84291029	      1.93397659	      0.94773071	     -0.17634467	      0.65650706	     -6.29097160	    -18.97730913	      3.97201346	    -10.77296408	     -2.03687023	      0.00000000	      2.96162478	     -3.46384027	     -7.40569985	      5.18248734	    -14.44212182	      4.48590649	      0.00000000	     -1.33589203	     -8.58905883	     11.16779448	    122.67596378	    -11.21848584	     11.68752035	     44.31275409	     98.79405186	    117.86316898	     -0.10082551	     29.70776579	     83.72689377	     91.09223969
      3.36666670	     -8.70035222	      2.72531231	      4.32728240	      1.93927602	      0.94819295	     -0.17534029	      0.27419003	     -6.02845674	    -18.87674505	      2.53657812	    -13.86330872	     -1.93317733	      0.00000000	      2.82627269	     -3.24717819	     -7.08439514	      3.88256330	    -16.56871458	      3.56650705	      0.00000000	     -0.93264763	     -9.00484971	     12.35507390	    132.59749443	    -12.12786479	     17.37150945	     29.13100951	     97.68422322	    120.01996162	      0.00429159	     29.54178185	     81.57473083	     89.98041215
      3.38333330	     -9.20798033	      2.62224228	      4.87029742	      1.94574015	      0.94613177	     -0.17347536	      0.11582835	     -5.84887240	    -18.52826034	      1.56455585	    -16.71309040	     -2.07704075	      0.00000000	      2.91220250	     -3.05663441	     -6.85470407	      3.05624731	    -18.19248273	      2.58801313	      0.00000000	     -0.56649859	     -9.47734217	     13.57360693	    141.54689044	    -12.15560360	     22.73049607	     17.06849520	     94.85816806	    122.22947148	      0.36087775	     29.43823540	     80.10499842	     88.32441077
      3.40000000	     -9.96836822	      2.49704881	      5.20051801	      1.95280926	      0.94422153	     -0.17126346	      0.43598860	     -5.72589234	    -17.85457422	      1.03483560	    -18.99812829	     -2.18507013	      0.00000000	      3.32720929	     -2.97149066	     -6.90486192	      2.63791014	    -19.21493748	      1.64926470	      0.00000000	      0.25389576	     -9.87568082	     15.55879035	    150.12452165	    -11.75296022	     55.92763474	      5.79181040	     54.45526748	    124.33574351	      1.05562562	     30.34698905	     78.32222804	     80.54779999
      3.41666670	    -10.83397525	      2.44395496	      5.64472958	      1.95963052	      0.94170293	     -0.17031750	      0.96978672	     -5.75578959	    -16.84156360	      0.88749591	    -20.91226115	     -3.14851470	      0.00000000	      3.85071355	     -2.80253186	     -6.41846671	      2.23298813	    -20.75597111	     -0.02942441	      0.00000000	      1.04938052	    -10.55939810	     15.47858262	    154.39310990	    -10.46555614	     55.62349883	      3.01310864	     53.73534101	    126.62273870	      0.86138667	     30.19871931	     79.11443304	     80.92049241
      3.43333330	    -11.53907512	      2.33411558	      6.01059607	      1.96625065	      0.93886756	     -0.17078078	      1.39580498	     -5.79795447	    -16.04205901	      0.98103125	    -22.08833117	     -3.48081920	      0.00000000	      4.33280395	     -2.78152152	     -6.25933653	      2.30164740	    -21.28472341	     -0.85576810	      0.00000000	      1.72683905	    -11.00934579	     15.44509476	    157.89614844	     -9.57297837	     55.85647400	      3.04808349	     53.41942111	    128.47130198	      0.53499403	     30.34823639	     80.28943260	     81.19733200
      3.45000000	    -11.98778362	      2.12555749	      6.27188992	      1.97305515	      0.93761494	     -0.17173912	      1.66868320	     -5.78848081	    -15.26229162	      1.37402957	    -23.06064933	     -3.72880988	      0.00000000	      4.57822572	     -2.91647354	     -6.21734402	      2.51760974	    -21.75534229	     -1.75012947	      0.00000000	      2.14682698	    -11.07310013	     15.09423934	    160.49512339	     -8.33548819	     56.16076387	      4.24684269	     53.29542496	    129.81348356	     -0.17453829	     30.48982432	     81.86717904	     81.50317893
      3.46666670	    -12.10416749	      1.90516415	      6.53038300	      1.98104817	      0.93780974	     -0.17297728	      1.46878947	     -5.74896186	    -14.08187397	      1.83152934	    -23.60827836	     -3.90027299	      0.00000000	      4.32518265	     -3.06199661	     -5.72515043	      2.60723386	    -22.08477142	     -2.60900012	      0.00000000	      2.27712308	    -10.82030936	     14.43669973	    162.24923519	     -7.04287453	     56.59477674	      6.56215559	     53.28844449	    130.01180954	     -1.84832466	     30.79677393	     85.17963837	     82.14408132
      3.48333330	    -12.08128326	      1.68263424	      6.67860414	      1.98970883	      0.93856589	     -0.17479354	      1.07976887	     -5.71037962	    -13.41136520	      2.38912349	    -23.56917955	     -3.64509450	      0.00000000	      3.81277873	     -3.18160616	     -5.69974167	      2.78804168	    -21.78755170	     -3.33613485	      0.00000000	      2.37657228	    -10.30979782	     14.10888963	    163.44635610	     -5.64379449	     56.85136203	      9.44766219	     53.46724037	    129.28036389	     -3.34176994	     30.80683467	     88.74877138	     82.81775088
      3.50000000	    -11.88942029	      1.51225648	      6.78423307	      1.99816899	      0.93786879	     -0.17762798	      0.36839353	     -5.71048982	    -12.87548734	      2.88393435	    -23.14020881	     -3.23345931	      0.00000000	      2.93921852	     -3.13804179	     -5.74876616	      2.84055958	    -21.11322333	     -3.92702561	      0.00000000	      2.44622208	     -9.62726644	     13.85961184	    163.94837799	     -4.39654450	     56.99903861	     12.61832209	     53.86975970	    127.70407761	     -4.70728256	     30.64963569	     92.46620920	     83.58050809
      3.51666670	    -12.00867594	      1.44606893	      6.84076342	      2.00608462	      0.93380625	     -0.18067718	      0.10551429	     -5.90068374	    -12.74391614	      3.66625054	    -22.52820288	     -2.74788903	      0.00000000	      2.40473217	     -2.85930469	     -6.09340992	      3.01314814	    -20.19997142	     -4.78264197	      0.00000000	      3.22703348	     -9.21790226	     13.52867275	    162.65533396	     -4.39264376	     52.53768768	     18.22423770	     58.35728210	    125.54661505	     -5.29379874	     30.28110089	     94.87343790	     90.52627236
